<svg width="26" height="26" viewBox="0 0 26 26" fill="none" xmlns="http://www.w3.org/2000/svg">
<path d="M1.625 0L0 1.625L3.57644 6.63201C3.88147 7.05906 4.37396 7.3125 4.89875 7.3125H5.0144C5.44538 7.3125 5.85871 7.4837 6.16345 7.78845L10.5103 12.1353L6.25785 16.4489C5.81946 16.3195 5.35534 16.25 4.875 16.25C2.18261 16.25 0 18.4326 0 21.125C0 23.8174 2.18261 26 4.875 26C7.56739 26 9.75 23.8174 9.75 21.125C9.75 20.6447 9.68053 20.1805 9.55109 19.7422L13.8647 15.4897L15.4375 17.0625L14.9426 18.5472C14.748 19.1312 14.8999 19.7749 15.3352 20.2102L20.649 25.524C20.9664 25.8414 21.3822 26 21.7981 26C22.214 26 22.6298 25.8413 22.9471 25.524L25.524 22.9471C25.8413 22.6298 26 22.214 26 21.7981C26 21.3822 25.8414 20.9664 25.524 20.649L20.2102 15.3352C19.7749 14.8999 19.1312 14.748 18.5472 14.9426L17.0625 15.4375L15.5013 13.8763L19.8561 9.58322C20.2607 9.69199 20.6861 9.75 21.125 9.75C23.8174 9.75 26 7.56739 26 4.875C26 4.4383 25.9426 4.01501 25.8349 3.61227L22.3557 7.09144L19.5 6.49997L18.9086 3.64429L22.3877 0.165124C21.985 0.0574208 21.5617 0 21.125 0C18.4326 0 16.25 2.18261 16.25 4.875C16.25 5.31395 16.308 5.73935 16.4168 6.14395L12.1237 10.4987L7.78845 6.16345C7.4837 5.85871 7.3125 5.44538 7.3125 5.0144V4.89875C7.3125 4.37396 7.05906 3.88147 6.63201 3.57644L1.625 0ZM17.3005 17.3005C17.6178 16.9832 18.1322 16.9832 18.4495 17.3005L23.1851 22.0361C23.5024 22.3534 23.5024 22.8678 23.1851 23.1851C22.8678 23.5024 22.3534 23.5024 22.0361 23.1851L17.3005 18.4495C16.9832 18.1322 16.9832 17.6178 17.3005 17.3005ZM4.875 17.875L5.64046 18.2682L6.5 18.3104L6.96627 19.0337L7.68958 19.5L7.73173 20.3595L8.125 21.125L7.73173 21.8904L7.68958 22.75L6.96627 23.2162L6.5 23.9396L5.64046 23.9817L4.875 24.375L4.10954 23.9817L3.25 23.9396L2.78373 23.2162L2.06042 22.75L2.01828 21.8904L1.625 21.125L2.01828 20.3595L2.06042 19.5L2.78373 19.0337L3.25 18.3104L4.10954 18.2682L4.875 17.875Z" fill="#333333"/>
</svg>
